<?xml version="1.0" encoding="UTF-8"?>
<!DOCTYPE svg PUBLIC "-//W3C//DTD SVG 1.1//EN" "http://www.w3.org/Graphics/SVG/1.1/DTD/svg11.dtd">
<!-- Creator: CorelDRAW 2021 (64-Bit) -->
<svg xmlns="http://www.w3.org/2000/svg" xml:space="preserve" width="32.7605mm" height="47.8669mm" version="1.1" style="shape-rendering:geometricPrecision; text-rendering:geometricPrecision; image-rendering:optimizeQuality; fill-rule:evenodd; clip-rule:evenodd"
viewBox="0 0 470.38 687.28"
 xmlns:xlink="http://www.w3.org/1999/xlink"
 xmlns:xodm="http://www.corel.com/coreldraw/odm/2003">
 <defs>
  <style type="text/css">
   <![CDATA[
    .fil0 {fill:#E4B453}
   ]]>
  </style>
 </defs>
 <g id="Capa_x0020_1">
  <metadata id="CorelCorpID_0Corel-Layer"/>
  <g id="_1580584553776">
   <path class="fil0" d="M470.38 687.28c-6.3,-1.06 -17.08,-3.46 -31.33,-8.39 -59.42,-20.56 -179.11,-85.22 -285.1,-281.69 -24.49,-40.81 -65.78,-137.22 -72.18,-186.02 0.74,4.51 4.37,-7.5 5.3,-3.38 15.44,68.13 77.29,200.4 116.27,255.87 10.26,14.6 22.13,30.5 36.01,48.03 53.88,68.03 140.22,160.27 229.79,167.86l1.24 7.72z"/>
   <path class="fil0" d="M110.83 525.26c16,18.03 45.26,48.81 71.26,59.06 49.77,19.62 54.47,-17.04 43.04,-47.6 -10.16,-27.19 -91.55,-14.58 -114.3,-11.47z"/>
   <path class="fil0" d="M52.97 413.98c7.9,11.62 31.85,83.6 101.75,68.8 19.86,-73.76 -39.88,-69.93 -101.75,-68.8z"/>
   <path class="fil0" d="M169.3 146.85c-15.36,10.21 -82.86,58.47 -49.26,90.95 49.44,47.79 50.78,-65.07 49.26,-90.95z"/>
   <path class="fil0" d="M342.02 366.47c33.09,-31.76 -35.12,-61.8 -57.22,-73.24 0.49,30.49 25.57,103.61 57.22,73.24z"/>
   <path class="fil0" d="M329.26 24.86l3.73 -0.18c-5.49,18.73 -19.46,61.76 -3.21,79.69 17.27,19.07 47.32,-2.52 25.75,-42.49l-26.26 -37.02z"/>
   <path class="fil0" d="M3.47 311.01c7.9,11.62 31.85,83.6 101.75,68.8 19.86,-73.76 -39.88,-69.93 -101.75,-68.8z"/>
   <path class="fil0" d="M204.75 239.56c-9.97,9.81 -76.11,46.03 -49.28,112.23 75.63,6.59 61.32,-51.53 49.28,-112.23z"/>
   <path class="fil0" d="M264.27 332.95c-13.68,11.88 -68.87,53.73 -63.32,84.11 5.83,31.91 29.82,36.81 53.79,19.34 18.37,-13.39 13.1,-64.9 9.53,-103.45z"/>
   <path class="fil0" d="M317.1 422.09c-13.68,11.88 -68.87,53.73 -63.32,84.11 5.83,31.91 29.82,36.81 53.79,19.34 18.37,-13.39 13.1,-64.9 9.53,-103.45z"/>
   <path class="fil0" d="M56.26 85.86c-9.86,29.72 -29.12,115.24 25.15,102.51 44.86,-10.53 -11.73,-87.25 -25.15,-102.51z"/>
   <path class="fil0" d="M-0 190.57c17.16,6.79 93.21,39.94 67.11,78.7 -38.41,57.04 -63.21,-53.07 -67.11,-78.7z"/>
   <path class="fil0" d="M449.85 559.19c-3.82,-0.64 -4.44,2.87 -6.91,-0.08 -82.34,-98.35 -95.74,-234.05 -90.68,-380.34 1.53,-44.27 33.27,-92.07 31.39,-106.44 5.15,2.7 0.06,0.2 5.65,2.86 0.3,16.67 -23.72,64.05 -30.04,104.78 -13.06,84.13 2.18,270.29 89.36,371.5l1.24 7.72z"/>
   <path class="fil0" d="M418.59 291.93c-9.34,6.18 -46.55,27.37 -45.6,46.44 1,20.03 15.3,24.97 31.41,16.19 12.34,-6.73 13.27,-38.72 14.19,-62.63z"/>
   <path class="fil0" d="M443.25 100.44c-11.11,1.39 -53.86,3.88 -61.47,21.39 -7.99,18.39 2.63,29.17 20.96,28.45 14.04,-0.55 29.07,-28.81 40.51,-49.83z"/>
   <path class="fil0" d="M418.41 162.65c-10.52,3.84 -51.64,15.8 -55.15,34.57 -3.69,19.71 9.08,27.84 26.78,23.05 13.57,-3.67 21.91,-34.58 28.36,-57.62z"/>
   <path class="fil0" d="M411.86 227.56c-9.93,5.19 -49.1,22.48 -50.1,41.54 -1.05,20.02 12.68,26.4 29.59,19.31 12.96,-5.43 17.15,-37.16 20.51,-60.86z"/>
   <path class="fil0" d="M333.02 197.42c30.23,-29.02 -32.08,-56.47 -52.28,-66.91 0.45,27.86 23.37,94.65 52.28,66.91z"/>
   <path class="fil0" d="M333.02 284.09c30.23,-29.02 -32.08,-56.47 -52.28,-66.91 0.45,27.86 23.37,94.65 52.28,66.91z"/>
   <path class="fil0" d="M429.29 0c-19.56,10.73 -71.12,46.04 -36.61,65.72 28.53,16.27 36.21,-51.25 36.61,-65.72z"/>
  </g>
 </g>
</svg>
