<?xml version="1.0" encoding="UTF-8"?>
<!DOCTYPE svg PUBLIC "-//W3C//DTD SVG 1.1//EN" "http://www.w3.org/Graphics/SVG/1.1/DTD/svg11.dtd">
<!-- Creator: CorelDRAW 2021 (64-Bit) -->
<svg xmlns="http://www.w3.org/2000/svg" xml:space="preserve" width="210.71mm" height="47.8669mm" version="1.1" style="shape-rendering:geometricPrecision; text-rendering:geometricPrecision; image-rendering:optimizeQuality; fill-rule:evenodd; clip-rule:evenodd"
viewBox="0 0 21237.22 4824.45"
 xmlns:xlink="http://www.w3.org/1999/xlink"
 xmlns:xodm="http://www.corel.com/coreldraw/odm/2003">
 <defs>
  <style type="text/css">
   <![CDATA[
    .fil5 {fill:#1A14D3}
    .fil4 {fill:#45CB1A}
    .fil7 {fill:#4BD2E2}
    .fil6 {fill:#AB14BB}
    .fil1 {fill:#E31E18}
    .fil3 {fill:#E4B453}
    .fil2 {fill:#E5711B}
    .fil0 {fill:white;fill-rule:nonzero}
   ]]>
  </style>
 </defs>
 <g id="Capa_x0020_1">
  <metadata id="CorelCorpID_0Corel-Layer"/>
  <path class="fil0" d="M4720.79 2429.63c-148.04,77.12 -342.03,115.69 -581.01,115.69 -311.54,0 -556.81,-98.49 -735.31,-295.99 -179,-197.51 -268.01,-460.68 -268.01,-789.5 0,-350.19 100.13,-634.19 300.91,-852.02 200.76,-217.84 461.5,-326.75 781.75,-326.75 198.34,0 365.73,27.1 501.67,81.3l0 474.74c-135.93,-87.55 -290.74,-131.32 -464.9,-131.32 -190.6,0 -344.92,64.62 -462,193.86 -117.07,129.23 -175.59,304.33 -175.59,525.28 0,211.58 55.14,380.42 165.92,506.01 110.3,125.58 259.3,188.64 446.53,188.64 178.51,0 342.01,-46.9 490.05,-140.7l0 450.77z"/>
  <polygon id="_1" class="fil0" points="6293.99,2507.28 5074.9,2507.28 5074.9,318.06 6247.06,318.06 6247.06,719.32 5533.02,719.32 5533.02,1206.56 6197.71,1206.56 6197.71,1606.26 5533.02,1606.26 5533.02,2107.05 6293.99,2107.05 "/>
  <path id="_2" class="fil0" d="M8324.82 2507.28l-525.86 0 -315.89 -563.33c-23.71,-42.73 -46.44,-80.77 -68.21,-114.65 -21.77,-33.35 -43.53,-62.01 -65.8,-85.98 -22.24,-23.97 -45.47,-42.21 -69.66,-55.23 -24.19,-12.51 -50.31,-18.77 -78.37,-18.77l-123.37 0 0 837.96 -458.12 0 0 -2189.22 725.65 0c493.43,0 740.14,198.54 740.14,595.12 0,76.6 -11.12,146.95 -32.89,211.58 -21.77,64.62 -52.24,122.98 -91.91,175.09 -39.68,51.59 -87.58,96.4 -143.68,133.93 -56.6,38.04 -119,67.23 -188.18,88.59l0 6.25c30.48,10.42 59.51,26.58 88.04,49.51 28.55,22.93 55.64,49.51 82.24,80.25 26.62,30.75 51.77,63.58 75.95,98.49 24.18,34.92 45.95,69.31 65.8,103.19l384.11 647.23zm-1247.15 -1819.74l0 609.19 198.35 0c98.2,0 177.06,-30.75 236.56,-91.72 60.46,-62.02 90.94,-139.14 90.94,-230.33 0,-191.77 -106.42,-287.14 -319.28,-287.14l-206.58 0z"/>
  <polygon id="_3" class="fil0" points="9733.54,2507.28 8514.46,2507.28 8514.46,318.06 9686.61,318.06 9686.61,719.32 8972.57,719.32 8972.57,1206.56 9637.26,1206.56 9637.26,1606.26 8972.57,1606.26 8972.57,2107.05 9733.54,2107.05 "/>
  <path id="_4" class="fil0" d="M11861.12 2507.28l-498.76 0 -144.64 -487.24 -722.74 0 -143.19 487.24 -496.36 0 740.16 -2189.22 542.78 0 722.75 2189.22zm-748.38 -865.58l-218.19 -735.82c-15.95,-55.23 -27.57,-120.9 -34.35,-196.98l-11.12 0c-4.84,64.1 -16.45,127.68 -35.32,190.73l-221.08 742.07 520.05 0z"/>
  <polygon id="_5" class="fil0" points="13324.98,2507.28 12114.61,2507.28 12114.61,318.06 12572.72,318.06 12572.72,2107.05 13324.98,2107.05 "/>
  <path id="_6" class="fil0" d="M14962.03 2429.63c-148.03,77.12 -342.02,115.69 -581,115.69 -311.55,0 -556.82,-98.49 -735.32,-295.99 -179,-197.51 -268.01,-460.68 -268.01,-789.5 0,-350.19 100.13,-634.19 300.91,-852.02 200.76,-217.84 461.5,-326.75 781.76,-326.75 198.33,0 365.72,27.1 501.66,81.3l0 474.74c-135.93,-87.55 -290.74,-131.32 -464.9,-131.32 -190.6,0 -344.91,64.62 -461.99,193.86 -117.08,129.23 -175.6,304.33 -175.6,525.28 0,211.58 55.14,380.42 165.93,506.01 110.3,125.58 259.29,188.64 446.52,188.64 178.51,0 342.02,-46.9 490.05,-140.7l0 450.77z"/>
  <path id="_7" class="fil0" d="M16137.1 2545.31c-291.23,0 -528.27,-102.14 -711.61,-305.89 -183.36,-204.28 -274.78,-470.05 -274.78,-797.82 0,-346.03 92.88,-625.87 279.12,-839.52 186.26,-213.66 432.49,-321.01 739.68,-321.01 290.25,0 524.88,102.66 703.87,306.94 179,204.79 268.49,474.74 268.49,809.29 0,343.93 -92.88,621.7 -278.65,832.22 -185.28,210.53 -427.65,315.79 -726.12,315.79zm19.84 -1839.54c-160.62,0 -288.33,64.62 -382.66,194.9 -94.34,129.76 -141.75,301.21 -141.75,514.86 0,216.79 47.41,388.24 141.75,514.87 94.33,126.11 218.17,189.16 371.04,189.16 158.19,0 283.01,-61.49 375.88,-183.95 92.39,-122.98 138.84,-292.87 138.84,-510.7 0,-227.21 -44.99,-403.86 -134.48,-529.98 -89.98,-126.11 -212.86,-189.16 -368.63,-189.16z"/>
  <path id="_8" class="fil0" d="M18338.22 2545.31c-291.23,0 -528.27,-102.14 -711.62,-305.89 -183.35,-204.28 -274.77,-470.05 -274.77,-797.82 0,-346.03 92.88,-625.87 279.12,-839.52 186.25,-213.66 432.49,-321.01 739.67,-321.01 290.26,0 524.89,102.66 703.88,306.94 178.99,204.79 268.49,474.74 268.49,809.29 0,343.93 -92.89,621.7 -278.65,832.22 -185.28,210.53 -427.65,315.79 -726.12,315.79zm19.84 -1839.54c-160.62,0 -288.33,64.62 -382.67,194.9 -94.33,129.76 -141.74,301.21 -141.74,514.86 0,216.79 47.41,388.24 141.74,514.87 94.34,126.11 218.18,189.16 371.05,189.16 158.19,0 283,-61.49 375.88,-183.95 92.39,-122.98 138.84,-292.87 138.84,-510.7 0,-227.21 -44.99,-403.86 -134.48,-529.98 -89.98,-126.11 -212.87,-189.16 -368.63,-189.16z"/>
  <path id="_9" class="fil0" d="M20138.29 1753.22l0 754.05 -458.12 0 0 -2189.22 717.42 0c512.3,0 768.21,232.42 768.21,697.78 0,219.91 -73.54,397.61 -220.6,533.62 -147.06,135.49 -342.98,203.76 -588.74,203.76l-218.18 0zm0 -1056.83l0 682.66 179.96 0c243.82,0 365.72,-115.16 365.72,-344.98 0,-225.12 -121.9,-337.68 -365.72,-337.68l-179.96 0z"/>
  <path class="fil0" d="M3766.13 3365.79l93 22.98c-19.41,74.51 -54.33,131.16 -104.75,170.24 -50.4,39.1 -112.08,58.72 -185.02,58.72 -75.38,0 -136.73,-15 -184.04,-45.15 -47.32,-29.99 -83.22,-73.56 -107.85,-130.52 -24.64,-57.12 -37.04,-118.23 -37.04,-183.64 0,-71.33 13.88,-133.56 41.78,-186.68 27.9,-53.14 67.55,-93.5 118.94,-121.11 51.39,-27.6 108.02,-41.32 169.69,-41.32 70.16,0 129.06,17.4 176.69,52.34 47.81,34.94 81.09,83.93 99.86,147.1l-91.04 21.06c-16.16,-49.78 -39.81,-86.15 -70.64,-108.81 -30.84,-22.82 -69.68,-34.15 -116.5,-34.15 -53.69,0 -98.71,12.61 -134.76,37.82 -36.06,25.21 -61.51,59.19 -76.04,101.64 -14.68,42.6 -22.03,86.48 -22.03,131.63 0,58.24 8.66,109.13 25.95,152.53 17.29,43.56 44.21,75.94 80.76,97.48 36.55,21.55 76.03,32.23 118.61,32.23 51.9,0 95.61,-14.67 131.51,-43.87 35.89,-29.36 60.2,-72.76 72.93,-130.52z"/>
  <path id="_1_0" class="fil0" d="M3945.44 3272.61c0,-113.6 31.34,-202.63 93.82,-266.93 62.49,-64.3 143.09,-96.37 241.96,-96.37 64.78,0 123.02,15.16 175.07,45.31 51.89,30.16 91.53,72.28 118.78,126.37 27.25,53.93 40.96,115.2 40.96,183.65 0,69.4 -14.37,131.63 -43.09,186.36 -28.71,54.89 -69.34,96.37 -121.87,124.45 -52.69,28.24 -109.48,42.28 -170.33,42.28 -66.08,0 -124.99,-15.64 -177.04,-46.76 -51.88,-31.1 -91.37,-73.55 -118.13,-127.48 -26.75,-53.77 -40.13,-110.73 -40.13,-170.89zm95.95 1.6c0,82.49 22.67,147.42 68.03,194.81 45.36,47.38 102.3,71.16 170.82,71.16 69.85,0 127.1,-23.93 172.3,-71.8 45.04,-47.86 67.55,-115.83 67.55,-203.91 0,-55.69 -9.63,-104.35 -28.88,-145.83 -19.25,-41.48 -47.47,-73.72 -84.51,-96.53 -37.2,-22.82 -78.81,-34.31 -124.98,-34.31 -65.59,0 -122.05,22.02 -169.37,66.06 -47.31,44.03 -70.97,117.43 -70.97,220.34z"/>
  <path id="_2_1" class="fil0" d="M4706.91 3272.61c0,-113.6 31.34,-202.63 93.82,-266.93 62.49,-64.3 143.09,-96.37 241.95,-96.37 64.78,0 123.03,15.16 175.07,45.31 51.9,30.16 91.54,72.28 118.79,126.37 27.25,53.93 40.96,115.2 40.96,183.65 0,69.4 -14.37,131.63 -43.09,186.36 -28.71,54.89 -69.34,96.37 -121.87,124.45 -52.7,28.24 -109.48,42.28 -170.34,42.28 -66.08,0 -124.98,-15.64 -177.03,-46.76 -51.89,-31.1 -91.37,-73.55 -118.13,-127.48 -26.76,-53.77 -40.13,-110.73 -40.13,-170.89zm95.94 1.6c0,82.49 22.68,147.42 68.04,194.81 45.36,47.38 102.3,71.16 170.82,71.16 69.84,0 127.1,-23.93 172.3,-71.8 45.04,-47.86 67.55,-115.83 67.55,-203.91 0,-55.69 -9.63,-104.35 -28.88,-145.83 -19.25,-41.48 -47.47,-73.72 -84.51,-96.53 -37.2,-22.82 -78.81,-34.31 -124.98,-34.31 -65.59,0 -122.05,22.02 -169.37,66.06 -47.32,44.03 -70.98,117.43 -70.98,220.34z"/>
  <path id="_3_2" class="fil0" d="M5496.78 3606.24l0 -685.45 264.65 0c46.48,0 82.07,2.24 106.71,6.54 34.42,5.58 63.3,16.28 86.64,31.91 23.33,15.8 42.09,37.82 56.28,66.06 14.2,28.24 21.21,59.35 21.21,93.34 0,58.07 -18.92,107.38 -56.93,147.59 -37.86,40.37 -106.55,60.47 -205.76,60.47l-179.8 0 0 279.54 -93 0zm93 -359.96l181.11 0c60.05,0 102.46,-10.84 127.75,-32.71 25.14,-21.86 37.7,-52.49 37.7,-92.22 0,-28.56 -7.34,-53.13 -22.19,-73.56 -14.84,-20.42 -34.42,-33.99 -58.57,-40.53 -15.66,-3.98 -44.55,-6.06 -86.48,-6.06l-179.31 0 0 245.07z"/>
  <polygon id="_4_3" class="fil0" points="6151.7,3606.24 6151.7,2920.79 6657.82,2920.79 6657.82,3001.21 6244.7,3001.21 6244.7,3211.82 6631.39,3211.82 6631.39,3292.24 6244.7,3292.24 6244.7,3525.82 6674.47,3525.82 6674.47,3606.24 "/>
  <path id="_5_4" class="fil0" d="M6804.67 3606.24l0 -685.45 310.66 0c62.49,0 109.97,6.23 142.43,18.51 32.46,12.28 58.41,33.98 77.83,65.09 19.41,31.11 29.04,65.58 29.04,103.24 0,48.66 -16.15,89.66 -48.3,123.01 -32.14,33.35 -81.74,54.41 -148.96,63.51 24.63,11.48 43.23,22.97 55.96,34.14 27.09,24.26 52.7,54.73 76.69,91.26l121.22 186.68 -115.85 0 -92.67 -142.64c-26.92,-41.33 -49.28,-72.76 -66.73,-94.62 -17.63,-21.86 -33.28,-37.02 -47.16,-45.79 -13.71,-8.62 -27.9,-14.68 -42.25,-18.19 -10.44,-2.08 -27.58,-3.2 -51.55,-3.2l-107.37 0 0 304.43 -93 0zm93 -382.93l199.06 0c42.42,0 75.38,-4.31 99.2,-12.92 23.82,-8.46 41.94,-22.18 54.17,-41.17 12.4,-18.83 18.61,-39.25 18.61,-61.42 0,-32.39 -11.91,-59.2 -35.9,-80.1 -23.98,-20.9 -61.83,-31.27 -113.56,-31.27l-221.57 0 0 226.89z"/>
  <path id="_6_5" class="fil0" d="M7432.85 3606.24l268.87 -685.45 101.98 0 285.37 685.45 -105.58 0 -81.07 -207.74 -295.17 0 -76.03 207.74 -98.38 0zm201.66 -281.45l238.87 0 -73.09 -190.03c-22.03,-57.76 -38.67,-105.47 -50.26,-143.12 -9.63,44.67 -22.52,88.55 -38.66,131.95l-76.85 201.19z"/>
  <polygon id="_7_6" class="fil0" points="8268.23,3606.24 8268.23,3001.21 8037.19,3001.21 8037.19,2920.79 8592.25,2920.79 8592.25,3001.21 8361.23,3001.21 8361.23,3606.24 "/>
  <polygon id="_8_7" class="fil0" points="8703.7,3606.24 8703.7,2920.79 8796.7,2920.79 8796.7,3606.24 "/>
  <path id="_9_8" class="fil0" d="M9159.73 3606.24l-270.84 -685.45 100.5 0 182.09 498.13c14.52,39.89 26.92,77.22 36.72,112.17 10.77,-37.49 23.33,-74.84 37.7,-112.17l188.93 -498.13 94.63 0 -273.29 685.45 -96.42 0z"/>
  <path id="_10" class="fil0" d="M9463.53 3606.24l268.87 -685.45 101.98 0 285.37 685.45 -105.58 0 -81.07 -207.74 -295.17 0 -76.03 207.74 -98.38 0zm201.66 -281.45l238.87 0 -73.09 -190.03c-22.03,-57.76 -38.67,-105.47 -50.26,-143.12 -9.63,44.67 -22.52,88.55 -38.66,131.95l-76.85 201.19z"/>
  <path id="_11" class="fil0" d="M10411.32 3606.24l0 -685.45 241.48 0c54.49,0 96.1,3.2 124.82,9.74 40.13,9.09 74.4,25.53 102.78,49.14 37.04,30.63 64.62,69.56 82.89,117.11 18.43,47.55 27.58,101.96 27.58,163.07 0,52.02 -6.2,98.13 -18.61,138.33 -12.4,40.2 -28.39,73.56 -47.79,99.88 -19.58,26.33 -40.8,47.07 -63.97,62.07 -23,15.16 -50.9,26.65 -83.53,34.46 -32.8,7.82 -70.32,11.65 -112.74,11.65l-252.9 0zm93 -80.42l149.46 0c46.17,0 82.39,-4.14 108.66,-12.6 26.28,-8.46 47.16,-20.27 62.82,-35.58 21.86,-21.55 38.99,-50.59 51.22,-86.96 12.25,-36.37 18.44,-80.42 18.44,-132.27 0,-71.8 -12.07,-127.01 -36.05,-165.63 -23.99,-38.61 -53.2,-64.45 -87.62,-77.54 -24.8,-9.41 -64.78,-14.04 -119.93,-14.04l-147.01 0 0 524.61z"/>
  <polygon id="_12" class="fil0" points="11120.26,3606.24 11120.26,2920.79 11626.38,2920.79 11626.38,3001.21 11213.26,3001.21 11213.26,3211.82 11599.95,3211.82 11599.95,3292.24 11213.26,3292.24 11213.26,3525.82 11643.02,3525.82 11643.02,3606.24 "/>
  <polygon id="_13" class="fil0" points="12203.81,3606.24 12203.81,3001.21 11972.78,3001.21 11972.78,2920.79 12527.85,2920.79 12527.85,3001.21 12296.81,3001.21 12296.81,3606.24 "/>
  <path id="_14" class="fil0" d="M12625.58 3606.24l0 -685.45 310.65 0c62.49,0 109.97,6.23 142.43,18.51 32.47,12.28 58.42,33.98 77.83,65.09 19.42,31.11 29.05,65.58 29.05,103.24 0,48.66 -16.16,89.66 -48.3,123.01 -32.15,33.35 -81.74,54.41 -148.97,63.51 24.63,11.48 43.24,22.97 55.97,34.14 27.08,24.26 52.7,54.73 76.68,91.26l121.23 186.68 -115.85 0 -92.67 -142.64c-26.92,-41.33 -49.28,-72.76 -66.74,-94.62 -17.62,-21.86 -33.28,-37.02 -47.15,-45.79 -13.71,-8.62 -27.9,-14.68 -42.26,-18.19 -10.44,-2.08 -27.57,-3.2 -51.55,-3.2l-107.36 0 0 304.43 -93 0zm93 -382.93l199.05 0c42.42,0 75.39,-4.31 99.21,-12.92 23.82,-8.46 41.94,-22.18 54.17,-41.17 12.4,-18.83 18.6,-39.25 18.6,-61.42 0,-32.39 -11.91,-59.2 -35.89,-80.1 -23.99,-20.9 -61.84,-31.27 -113.56,-31.27l-221.57 0 0 226.89z"/>
  <path id="_15" class="fil0" d="M13253.75 3606.24l268.88 -685.45 101.98 0 285.36 685.45 -105.57 0 -81.08 -207.74 -295.16 0 -76.04 207.74 -98.38 0zm201.67 -281.45l238.86 0 -73.09 -190.03c-22.02,-57.76 -38.67,-105.47 -50.25,-143.12 -9.63,44.67 -22.52,88.55 -38.67,131.95l-76.84 201.19z"/>
  <path id="_16" class="fil0" d="M13979.65 3606.24l0 -685.45 263.02 0c53.51,0 96.41,6.86 128.9,20.74 32.3,13.88 57.59,35.27 75.86,64.14 18.43,28.71 27.57,58.87 27.57,90.47 0,29.2 -8.14,56.8 -24.31,82.65 -16.15,25.85 -40.62,46.75 -73.41,62.7 42.42,12.13 75.06,32.88 97.72,62.23 22.85,29.2 34.28,63.83 34.28,103.71 0,32.23 -7.02,62.07 -20.89,89.67 -13.87,27.61 -31,48.82 -51.39,63.82 -20.4,14.84 -46.02,26.16 -76.69,33.82 -30.84,7.66 -68.52,11.49 -113.23,11.49l-267.42 0zm93 -397.29l151.59 0c41.11,0 70.63,-2.71 88.43,-7.97 23.65,-6.86 41.43,-18.35 53.34,-34.31 11.92,-15.95 17.96,-35.9 17.96,-59.99 0,-22.82 -5.54,-42.93 -16.81,-60.15 -11.09,-17.4 -27.08,-29.36 -47.8,-35.74 -20.72,-6.39 -56.29,-9.57 -106.53,-9.57l-140.17 0 0 207.74zm0 316.87l174.59 0c30.03,0 51.07,-1.11 63.31,-3.35 21.21,-3.67 39.16,-9.9 53.51,-18.67 14.37,-8.78 26.1,-21.54 35.42,-38.3 9.29,-16.75 13.86,-36.05 13.86,-57.91 0,-25.69 -6.68,-47.86 -20.23,-66.85 -13.37,-18.99 -31.98,-32.23 -55.8,-39.89 -23.66,-7.65 -57.92,-11.48 -102.46,-11.48l-162.19 0 0 236.45z"/>
  <path id="_17" class="fil0" d="M14559.69 3606.24l268.88 -685.45 101.97 0 285.37 685.45 -105.57 0 -81.08 -207.74 -295.16 0 -76.04 207.74 -98.38 0zm201.66 -281.45l238.87 0 -73.09 -190.03c-22.02,-57.76 -38.67,-105.47 -50.25,-143.12 -9.63,44.67 -22.53,88.55 -38.67,131.95l-76.85 201.19z"/>
  <path id="_18" class="fil0" d="M15242.53 3411.58l83.2 -11.17c2.29,52.49 12.24,88.39 30.03,107.85 17.78,19.31 42.58,29.04 74.07,29.04 23.17,0 43.24,-5.26 60.05,-15.63 16.8,-10.53 28.55,-24.73 34.91,-42.6 6.37,-17.87 9.45,-46.58 9.45,-85.84l0 -472.44 93.01 0 0 467.02c0,57.28 -7.01,101.64 -21.21,133.23 -14.19,31.43 -36.55,55.36 -67.39,71.95 -30.67,16.44 -66.73,24.73 -108.02,24.73 -61.51,0 -108.5,-17.23 -141.12,-51.86 -32.64,-34.62 -48.3,-86 -46.99,-154.29z"/>
  <path id="_19" class="fil0" d="M15750.61 3272.61c0,-113.6 31.33,-202.63 93.81,-266.93 62.5,-64.3 143.09,-96.37 241.96,-96.37 64.78,0 123.03,15.16 175.07,45.31 51.9,30.16 91.54,72.28 118.78,126.37 27.25,53.93 40.96,115.2 40.96,183.65 0,69.4 -14.36,131.63 -43.08,186.36 -28.71,54.89 -69.34,96.37 -121.87,124.45 -52.7,28.24 -109.49,42.28 -170.34,42.28 -66.08,0 -124.98,-15.64 -177.03,-46.76 -51.89,-31.1 -91.38,-73.55 -118.13,-127.48 -26.76,-53.77 -40.13,-110.73 -40.13,-170.89zm95.94 1.6c0,82.49 22.68,147.42 68.03,194.81 45.37,47.38 102.31,71.16 170.83,71.16 69.84,0 127.1,-23.93 172.3,-71.8 45.04,-47.86 67.55,-115.83 67.55,-203.91 0,-55.69 -9.63,-104.35 -28.88,-145.83 -19.26,-41.48 -47.48,-73.72 -84.52,-96.53 -37.19,-22.82 -78.81,-34.31 -124.98,-34.31 -65.59,0 -122.04,22.02 -169.36,66.06 -47.32,44.03 -70.98,117.43 -70.98,220.34z"/>
  <polygon id="_20" class="fil0" points="16808.54,3606.24 16808.54,2920.79 16901.53,2920.79 16901.53,3525.82 17246.12,3525.82 17246.12,3606.24 "/>
  <polygon id="_21" class="fil0" points="17372.57,3606.24 17372.57,2920.79 17465.58,2920.79 17465.58,3606.24 "/>
  <path id="_22" class="fil0" d="M17626.93 3606.24l0 -685.45 139.01 0 165.78 485.21c15.33,45.15 26.44,78.98 33.44,101.47 8,-24.89 20.56,-61.59 37.52,-109.93l168.71 -476.75 124.17 0 0 685.45 -89.09 0 0 -573.44 -204.6 573.44 -83.54 0 -202.31 -583.97 0 583.97 -89.09 0z"/>
  <polygon id="_23" class="fil0" points="18460.02,3606.24 18460.02,2920.79 18553.03,2920.79 18553.03,3606.24 "/>
  <polygon id="_24" class="fil0" points="18894.52,3606.24 18894.52,3001.21 18663.49,3001.21 18663.49,2920.79 19218.56,2920.79 19218.56,3001.21 18987.52,3001.21 18987.52,3606.24 "/>
  <path id="_25" class="fil0" d="M19164.88 3606.24l268.88 -685.45 101.97 0 285.37 685.45 -105.58 0 -81.07 -207.74 -295.17 0 -76.03 207.74 -98.38 0zm201.66 -281.45l238.87 0 -73.09 -190.03c-22.03,-57.76 -38.67,-105.47 -50.26,-143.12 -9.63,44.67 -22.52,88.55 -38.66,131.95l-76.85 201.19z"/>
  <path id="_26" class="fil0" d="M19894.69 3606.24l0 -685.45 241.48 0c54.49,0 96.1,3.2 124.82,9.74 40.13,9.09 74.4,25.53 102.78,49.14 37.04,30.63 64.62,69.56 82.89,117.11 18.43,47.55 27.58,101.96 27.58,163.07 0,52.02 -6.2,98.13 -18.61,138.33 -12.4,40.2 -28.39,73.56 -47.79,99.88 -19.58,26.33 -40.8,47.07 -63.97,62.07 -23,15.16 -50.9,26.65 -83.53,34.46 -32.8,7.82 -70.32,11.65 -112.74,11.65l-252.9 0zm93 -80.42l149.46 0c46.17,0 82.39,-4.14 108.66,-12.6 26.28,-8.46 47.16,-20.27 62.82,-35.58 21.86,-21.55 39,-50.59 51.22,-86.96 12.25,-36.37 18.44,-80.42 18.44,-132.27 0,-71.8 -12.07,-127.01 -36.05,-165.63 -23.99,-38.61 -53.2,-64.45 -87.62,-77.54 -24.8,-9.41 -64.78,-14.04 -119.93,-14.04l-147.01 0 0 524.61z"/>
  <path id="_27" class="fil0" d="M20524.82 3606.24l268.88 -685.45 101.97 0 285.37 685.45 -105.57 0 -81.08 -207.74 -295.16 0 -76.04 207.74 -98.38 0zm201.66 -281.45l238.87 0 -73.09 -190.03c-22.02,-57.76 -38.67,-105.47 -50.25,-143.12 -9.63,44.67 -22.53,88.55 -38.67,131.95l-76.85 201.19z"/>
  <g id="_2015076532480">
   <rect class="fil1" x="3160.26" y="4097.54" width="2585.21" height="705.06"/>
   <rect class="fil2" x="5744.73" y="4097.54" width="2585.21" height="705.06"/>
   <rect class="fil3" x="8326.26" y="4097.54" width="2585.21" height="705.06"/>
   <rect class="fil4" x="10909.62" y="4097.54" width="2585.21" height="705.06"/>
   <rect class="fil5" x="16075.07" y="4097.54" width="2585.21" height="705.06"/>
   <rect class="fil6" x="18652.01" y="4097.54" width="2585.21" height="705.06"/>
   <rect class="fil7" x="13491.18" y="4097.54" width="2585.21" height="705.06"/>
  </g>
  <g id="_2015076541312">
   <path class="fil3" d="M3301.9 4824.45c-44.2,-7.46 -119.92,-24.32 -219.91,-58.89 -417.08,-144.3 -1257.27,-598.2 -2001.3,-1977.34 -171.88,-286.47 -461.76,-963.21 -506.67,-1305.77 5.2,31.67 30.65,-52.65 37.2,-23.72 108.41,478.21 542.53,1406.72 816.18,1796.11 72.01,102.5 155.32,214.08 252.78,337.12 378.24,477.53 984.28,1125.03 1613.05,1178.32l8.68 54.16z"/>
   <path class="fil3" d="M778.01 3687.1c112.3,126.58 317.69,342.62 500.23,414.6 349.35,137.73 382.33,-119.59 302.13,-334.12 -71.32,-190.84 -642.65,-102.33 -802.36,-80.48z"/>
   <path class="fil3" d="M371.83 2906.01c55.42,81.59 223.57,586.83 714.27,482.92 139.39,-517.78 -279.91,-490.85 -714.27,-482.92z"/>
   <path class="fil3" d="M1188.45 1030.84c-107.85,71.7 -581.61,410.46 -345.78,638.44 347.07,335.48 356.43,-456.75 345.78,-638.44z"/>
   <path class="fil3" d="M2400.82 2572.51c232.3,-222.96 -246.5,-433.85 -401.67,-514.08 3.42,214.06 179.52,727.27 401.67,514.08z"/>
   <path class="fil3" d="M2311.26 174.49l26.15 -1.27c-38.52,131.51 -136.59,433.5 -22.54,559.41 121.25,133.84 332.14,-17.68 180.73,-298.27l-184.35 -259.86z"/>
   <path class="fil3" d="M24.36 2183.2c55.42,81.59 223.58,586.83 714.27,482.93 139.39,-517.79 -279.91,-490.85 -714.27,-482.93z"/>
   <path class="fil3" d="M1437.27 1681.62c-69.97,68.88 -534.24,323.1 -345.92,787.83 530.91,46.27 430.45,-361.7 345.92,-787.83z"/>
   <path class="fil3" d="M1855.05 2337.18c-96.03,83.41 -483.43,377.16 -444.48,590.43 40.92,223.97 209.3,258.4 377.6,135.73 128.95,-94.03 91.98,-455.61 66.88,-726.16z"/>
   <path class="fil3" d="M2225.94 2962.92c-96.03,83.41 -483.43,377.16 -444.48,590.43 40.92,223.97 209.3,258.4 377.6,135.73 128.95,-94.03 91.98,-455.61 66.88,-726.16z"/>
   <path class="fil3" d="M394.9 602.73c-69.18,208.59 -204.4,808.95 176.52,719.55 314.9,-73.93 -82.36,-612.49 -176.52,-719.55z"/>
   <path class="fil3" d="M-0 1337.75c120.42,47.67 654.32,280.37 471.12,552.45 -269.61,400.38 -443.71,-372.53 -471.12,-552.45z"/>
   <path class="fil3" d="M3157.76 3925.28c-26.79,-4.53 -31.16,20.15 -48.5,-0.59 -577.97,-690.36 -672.09,-1642.91 -636.53,-2669.81 10.74,-310.78 233.53,-646.3 220.31,-747.17 36.12,18.95 0.39,1.42 39.63,20.08 2.14,117.01 -166.5,449.64 -210.89,735.53 -91.69,590.54 15.32,1897.35 627.29,2607.8l8.69 54.16z"/>
   <path class="fil3" d="M2938.36 2049.25c-65.59,43.37 -326.75,192.14 -320.09,326 7,140.57 107.43,175.27 220.48,113.66 86.63,-47.22 93.15,-271.82 99.61,-439.66z"/>
   <path class="fil3" d="M3111.45 705.05c-78.02,9.77 -378.07,27.22 -431.49,150.14 -56.1,129.09 18.49,204.73 147.15,199.68 98.57,-3.88 204.08,-202.26 284.34,-349.82z"/>
   <path class="fil3" d="M2937.05 1141.74c-73.88,26.94 -362.46,110.93 -387.1,242.67 -25.87,138.34 63.73,195.44 188.01,161.8 95.23,-25.78 153.78,-242.71 199.09,-404.47z"/>
   <path class="fil3" d="M2891.09 1597.39c-69.68,36.45 -344.65,157.79 -351.69,291.61 -7.38,140.56 88.98,185.33 207.73,135.58 90.98,-38.13 120.41,-260.88 143.97,-427.19z"/>
   <path class="fil3" d="M2337.67 1385.83c212.23,-203.69 -225.19,-396.37 -366.97,-469.67 3.12,195.55 164.01,664.43 366.97,469.67z"/>
   <path class="fil3" d="M2337.67 1994.22c212.23,-203.69 -225.19,-396.36 -366.97,-469.67 3.12,195.55 164.01,664.43 366.97,469.67z"/>
   <path class="fil3" d="M3013.46 0c-137.33,75.35 -499.24,323.2 -256.97,461.35 200.3,114.19 254.19,-359.77 256.97,-461.35z"/>
  </g>
 </g>
</svg>
