<?xml version="1.0" encoding="UTF-8"?>
<!DOCTYPE svg PUBLIC "-//W3C//DTD SVG 1.1//EN" "http://www.w3.org/Graphics/SVG/1.1/DTD/svg11.dtd">
<!-- Creator: CorelDRAW 2021 (64-Bit) -->
<svg xmlns="http://www.w3.org/2000/svg" xml:space="preserve" width="210.71mm" height="47.8669mm" version="1.1" style="shape-rendering:geometricPrecision; text-rendering:geometricPrecision; image-rendering:optimizeQuality; fill-rule:evenodd; clip-rule:evenodd"
viewBox="0 0 19458.96 4420.49"
 xmlns:xlink="http://www.w3.org/1999/xlink"
 xmlns:xodm="http://www.corel.com/coreldraw/odm/2003">
 <defs>
  <style type="text/css">
   <![CDATA[
    .fil5 {fill:#1A14D3}
    .fil4 {fill:#45CB1A}
    .fil7 {fill:#4BD2E2}
    .fil6 {fill:#AB14BB}
    .fil1 {fill:#E31E18}
    .fil3 {fill:#E4B453}
    .fil2 {fill:#E5711B}
    .fil0 {fill:black;fill-rule:nonzero}
   ]]>
  </style>
 </defs>
 <g id="Capa_x0020_1">
  <metadata id="CorelCorpID_0Corel-Layer"/>
  <path class="fil0" d="M4325.51 2226.19c-135.64,70.67 -313.39,106 -532.36,106 -285.45,0 -510.19,-90.24 -673.74,-271.2 -164.01,-180.97 -245.57,-422.1 -245.57,-723.39 0,-320.87 91.75,-581.09 275.71,-780.68 183.95,-199.6 422.86,-299.39 716.29,-299.39 181.73,0 335.11,24.83 459.66,74.49l0 434.98c-124.55,-80.21 -266.39,-120.32 -425.97,-120.32 -174.64,0 -316.04,59.21 -423.31,177.63 -107.26,118.41 -160.89,278.85 -160.89,481.3 0,193.86 50.52,348.56 152.03,463.64 101.07,115.07 237.59,172.84 409.14,172.84 163.56,0 313.37,-42.97 449.01,-128.92l0 413.02z"/>
  <polygon id="_1" class="fil0" points="5766.97,2297.33 4649.97,2297.33 4649.97,291.43 5723.97,291.43 5723.97,659.09 5069.72,659.09 5069.72,1105.53 5678.76,1105.53 5678.76,1471.77 5069.72,1471.77 5069.72,1930.62 5766.97,1930.62 "/>
  <path id="_2" class="fil0" d="M7627.76 2297.33l-481.82 0 -289.44 -516.16c-21.72,-39.16 -42.55,-74.01 -62.5,-105.05 -19.95,-30.56 -39.89,-56.81 -60.29,-78.78 -20.38,-21.96 -41.66,-38.68 -63.82,-50.61 -22.16,-11.46 -46.1,-17.2 -71.81,-17.2l-113.04 0 0 767.79 -419.76 0 0 -2005.91 664.89 0c452.12,0 678.17,181.92 678.17,545.29 0,70.19 -10.19,134.65 -30.13,193.86 -19.95,59.21 -47.86,112.68 -84.21,160.43 -36.36,47.27 -80.24,88.33 -131.65,122.71 -51.86,34.85 -109.04,61.6 -172.43,81.18l0 5.73c27.93,9.55 54.52,24.35 80.67,45.36 26.16,21.01 50.98,45.36 75.36,73.53 24.39,28.18 47.43,58.25 69.59,90.24 22.15,32 42.1,63.51 60.29,94.55l351.94 593.03zm-1142.72 -1667.37l0 558.18 181.74 0c89.98,0 162.23,-28.18 216.75,-84.04 55.4,-56.82 83.33,-127.49 83.33,-211.05 0,-175.71 -97.51,-263.09 -292.54,-263.09l-189.28 0z"/>
  <polygon id="_3" class="fil0" points="8918.52,2297.33 7801.51,2297.33 7801.51,291.43 8875.52,291.43 8875.52,659.09 8221.27,659.09 8221.27,1105.53 8830.31,1105.53 8830.31,1471.77 8221.27,1471.77 8221.27,1930.62 8918.52,1930.62 "/>
  <path id="_4" class="fil0" d="M10867.95 2297.33l-457 0 -132.53 -446.45 -662.22 0 -131.2 446.45 -454.79 0 678.19 -2005.91 497.33 0 662.23 2005.91zm-685.71 -793.1l-199.92 -674.21c-14.62,-50.61 -25.26,-110.77 -31.47,-180.49l-10.19 0c-4.43,58.73 -15.07,116.99 -32.36,174.76l-202.57 679.93 476.51 0z"/>
  <polygon id="_5" class="fil0" points="12209.24,2297.33 11100.21,2297.33 11100.21,291.43 11519.97,291.43 11519.97,1930.62 12209.24,1930.62 "/>
  <path id="_6" class="fil0" d="M13709.22 2226.19c-135.63,70.67 -313.38,106 -532.35,106 -285.46,0 -510.19,-90.24 -673.75,-271.2 -164.01,-180.97 -245.57,-422.1 -245.57,-723.39 0,-320.87 91.75,-581.09 275.71,-780.68 183.95,-199.6 422.86,-299.39 716.3,-299.39 181.73,0 335.1,24.83 459.65,74.49l0 434.98c-124.55,-80.21 -266.39,-120.32 -425.97,-120.32 -174.64,0 -316.03,59.21 -423.3,177.63 -107.27,118.41 -160.9,278.85 -160.9,481.3 0,193.86 50.52,348.56 152.04,463.64 101.07,115.07 237.58,172.84 409.13,172.84 163.56,0 313.38,-42.97 449.01,-128.92l0 413.02z"/>
  <path id="_7" class="fil0" d="M14785.89 2332.19c-266.84,0 -484.04,-93.59 -652.02,-280.28 -168,-187.17 -251.77,-430.69 -251.77,-731.02 0,-317.05 85.1,-573.46 255.75,-769.23 170.66,-195.77 396.27,-294.13 677.74,-294.13 265.95,0 480.93,94.07 644.93,281.24 164.01,187.65 246.01,434.98 246.01,741.53 0,315.13 -85.1,569.64 -255.32,762.54 -169.77,192.9 -391.84,289.35 -665.32,289.35zm18.17 -1685.51c-147.17,0 -264.18,59.21 -350.61,178.58 -86.44,118.89 -129.88,275.99 -129.88,471.75 0,198.63 43.44,355.73 129.88,471.76 86.43,115.55 199.9,173.32 339.98,173.32 144.94,0 259.31,-56.34 344.41,-168.55 84.66,-112.68 127.21,-268.35 127.21,-467.94 0,-208.18 -41.22,-370.04 -123.22,-485.6 -82.45,-115.55 -195.03,-173.32 -337.76,-173.32z"/>
  <path id="_8" class="fil0" d="M16802.7 2332.19c-266.84,0 -484.04,-93.59 -652.03,-280.28 -167.99,-187.17 -251.76,-430.69 -251.76,-731.02 0,-317.05 85.1,-573.46 255.75,-769.23 170.65,-195.77 396.27,-294.13 677.73,-294.13 265.96,0 480.94,94.07 644.94,281.24 164,187.65 246.01,434.98 246.01,741.53 0,315.13 -85.11,569.64 -255.32,762.54 -169.77,192.9 -391.84,289.35 -665.32,289.35zm18.17 -1685.51c-147.17,0 -264.18,59.21 -350.62,178.58 -86.43,118.89 -129.87,275.99 -129.87,471.75 0,198.63 43.44,355.73 129.87,471.76 86.44,115.55 199.91,173.32 339.98,173.32 144.94,0 259.3,-56.34 344.41,-168.55 84.66,-112.68 127.21,-268.35 127.21,-467.94 0,-208.18 -41.22,-370.04 -123.22,-485.6 -82.45,-115.55 -195.04,-173.32 -337.76,-173.32z"/>
  <path id="_9" class="fil0" d="M18452.05 1606.42l0 690.91 -419.76 0 0 -2005.91 657.34 0c469.4,0 703.89,212.96 703.89,639.35 0,201.5 -67.38,364.32 -202.13,488.94 -134.75,124.15 -314.27,186.7 -539.44,186.7l-199.91 0zm0 -968.34l0 625.5 164.89 0c223.4,0 335.1,-105.52 335.1,-316.09 0,-206.27 -111.7,-309.41 -335.1,-309.41l-164.89 0z"/>
  <path class="fil0" d="M3450.78 3083.96l85.21 21.06c-17.79,68.27 -49.78,120.17 -95.98,155.99 -46.18,35.82 -102.69,53.8 -169.53,53.8 -69.07,0 -125.28,-13.74 -168.63,-41.37 -43.36,-27.48 -76.25,-67.4 -98.82,-119.59 -22.58,-52.33 -33.94,-108.33 -33.94,-168.26 0,-65.36 12.72,-122.37 38.28,-171.05 25.56,-48.69 61.89,-85.67 108.98,-110.97 47.09,-25.29 98.97,-37.86 155.48,-37.86 64.28,0 118.25,15.94 161.9,47.96 43.81,32.02 74.3,76.9 91.5,134.78l-83.42 19.3c-14.8,-45.61 -36.48,-78.94 -64.73,-99.7 -28.26,-20.91 -63.84,-31.29 -106.75,-31.29 -49.19,0 -90.45,11.55 -123.48,34.65 -33.04,23.1 -56.36,54.24 -69.67,93.13 -13.46,39.04 -20.19,79.24 -20.19,120.61 0,53.36 7.93,100 23.78,139.76 15.84,39.91 40.5,69.59 74,89.32 33.49,19.74 69.66,29.53 108.68,29.53 47.55,0 87.6,-13.45 120.5,-40.2 32.89,-26.9 55.16,-66.67 66.82,-119.59z"/>
  <path id="_1_0" class="fil0" d="M3615.08 2998.58c0,-104.09 28.71,-185.66 85.97,-244.58 57.26,-58.92 131.11,-88.3 221.7,-88.3 59.35,0 112.72,13.89 160.41,41.52 47.54,27.63 83.86,66.22 108.83,115.79 24.97,49.42 37.53,105.56 37.53,168.27 0,63.59 -13.17,120.61 -39.48,170.75 -26.31,50.29 -63.54,88.3 -111.67,114.03 -48.28,25.88 -100.31,38.74 -156.07,38.74 -60.54,0 -114.52,-14.33 -162.21,-42.84 -47.53,-28.5 -83.71,-67.39 -108.24,-116.8 -24.51,-49.27 -36.77,-101.46 -36.77,-156.58zm87.92 1.47c0,75.58 20.77,135.08 62.34,178.5 41.56,43.41 93.73,65.2 156.51,65.2 64,0 116.46,-21.92 157.87,-65.79 41.27,-43.86 61.89,-106.13 61.89,-186.83 0,-51.02 -8.82,-95.61 -26.46,-133.62 -17.64,-38.01 -43.5,-67.54 -77.44,-88.44 -34.09,-20.91 -72.21,-31.44 -114.51,-31.44 -60.1,0 -111.83,20.18 -155.18,60.53 -43.35,40.35 -65.02,107.6 -65.02,201.89z"/>
  <path id="_2_1" class="fil0" d="M4312.79 2998.58c0,-104.09 28.71,-185.66 85.97,-244.58 57.26,-58.92 131.11,-88.3 221.69,-88.3 59.35,0 112.73,13.89 160.41,41.52 47.55,27.63 83.87,66.22 108.84,115.79 24.97,49.42 37.53,105.56 37.53,168.27 0,63.59 -13.17,120.61 -39.48,170.75 -26.31,50.29 -63.54,88.3 -111.67,114.03 -48.29,25.88 -100.31,38.74 -156.08,38.74 -60.54,0 -114.51,-14.33 -162.2,-42.84 -47.54,-28.5 -83.71,-67.39 -108.24,-116.8 -24.52,-49.27 -36.77,-101.46 -36.77,-156.58zm87.91 1.47c0,75.58 20.78,135.08 62.35,178.5 41.56,43.41 93.73,65.2 156.51,65.2 63.99,0 116.46,-21.92 157.87,-65.79 41.27,-43.86 61.89,-106.13 61.89,-186.83 0,-51.02 -8.82,-95.61 -26.46,-133.62 -17.64,-38.01 -43.5,-67.54 -77.44,-88.44 -34.09,-20.91 -72.21,-31.44 -114.51,-31.44 -60.1,0 -111.83,20.18 -155.18,60.53 -43.36,40.35 -65.03,107.6 -65.03,201.89z"/>
  <path id="_3_2" class="fil0" d="M5036.51 3304.28l0 -628.05 242.49 0c42.59,0 75.2,2.05 97.77,5.99 31.54,5.12 58,14.91 79.38,29.24 21.38,14.48 38.57,34.65 51.57,60.53 13.01,25.88 19.43,54.38 19.43,85.52 0,53.21 -17.33,98.39 -52.16,135.23 -34.69,36.99 -97.63,55.41 -188.53,55.41l-164.74 0 0 256.13 -85.21 0zm85.21 -329.82l165.94 0c55.02,0 93.88,-9.94 117.05,-29.97 23.03,-20.03 34.54,-48.1 34.54,-84.5 0,-26.17 -6.72,-48.68 -20.34,-67.4 -13.59,-18.71 -31.54,-31.14 -53.66,-37.13 -14.35,-3.65 -40.82,-5.55 -79.24,-5.55l-164.3 0 0 224.55z"/>
  <polygon id="_4_3" class="fil0" points="5636.6,3304.28 5636.6,2676.23 6100.34,2676.23 6100.34,2749.91 5721.81,2749.91 5721.81,2942.88 6076.12,2942.88 6076.12,3016.57 5721.81,3016.57 5721.81,3230.59 6115.6,3230.59 6115.6,3304.28 "/>
  <path id="_5_4" class="fil0" d="M6234.9 3304.28l0 -628.05 284.65 0c57.26,0 100.76,5.71 130.51,16.96 29.75,11.25 53.52,31.13 71.31,59.64 17.79,28.51 26.61,60.09 26.61,94.59 0,44.59 -14.79,82.15 -44.25,112.71 -29.45,30.56 -74.9,49.85 -136.48,58.19 22.57,10.52 39.61,21.05 51.27,31.28 24.82,22.23 48.29,50.15 70.27,83.62l111.07 171.05 -106.15 0 -84.91 -130.69c-24.67,-37.87 -45.15,-66.67 -61.14,-86.7 -16.15,-20.03 -30.49,-33.92 -43.21,-41.95 -12.56,-7.9 -25.56,-13.46 -38.71,-16.67 -9.57,-1.9 -25.27,-2.93 -47.24,-2.93l-98.38 0 0 278.94 -85.21 0zm85.21 -350.86l182.39 0c38.87,0 69.07,-3.95 90.89,-11.84 21.82,-7.75 38.43,-20.33 49.64,-37.72 11.36,-17.25 17.05,-35.96 17.05,-56.28 0,-29.68 -10.92,-54.25 -32.89,-73.39 -21.97,-19.15 -56.66,-28.66 -104.05,-28.66l-203.02 0 0 207.89z"/>
  <path id="_6_5" class="fil0" d="M6810.47 3304.28l246.36 -628.05 93.44 0 261.48 628.05 -96.74 0 -74.29 -190.34 -270.45 0 -69.66 190.34 -90.14 0zm184.77 -257.89l218.87 0 -66.97 -174.12c-20.19,-52.93 -35.43,-96.63 -46.05,-131.14 -8.82,40.93 -20.63,81.14 -35.43,120.9l-70.42 184.35z"/>
  <polygon id="_7_6" class="fil0" points="7575.9,3304.28 7575.9,2749.91 7364.21,2749.91 7364.21,2676.23 7872.8,2676.23 7872.8,2749.91 7661.12,2749.91 7661.12,3304.28 "/>
  <polygon id="_8_7" class="fil0" points="7974.91,3304.28 7974.91,2676.23 8060.13,2676.23 8060.13,3304.28 "/>
  <path id="_9_8" class="fil0" d="M8392.75 3304.28l-248.16 -628.05 92.08 0 166.84 456.42c13.31,36.55 24.67,70.76 33.64,102.78 9.87,-34.35 21.38,-68.57 34.54,-102.78l173.11 -456.42 86.71 0 -250.41 628.05 -88.35 0z"/>
  <path id="_10" class="fil0" d="M8671.12 3304.28l246.36 -628.05 93.44 0 261.48 628.05 -96.74 0 -74.29 -190.34 -270.45 0 -69.66 190.34 -90.14 0zm184.77 -257.89l218.87 0 -66.97 -174.12c-20.19,-52.93 -35.43,-96.63 -46.05,-131.14 -8.82,40.93 -20.63,81.14 -35.43,120.9l-70.42 184.35z"/>
  <path id="_11" class="fil0" d="M9539.55 3304.28l0 -628.05 221.26 0c49.92,0 88.06,2.93 114.37,8.92 36.77,8.33 68.17,23.39 94.18,45.03 33.94,28.07 59.21,63.74 75.95,107.3 16.89,43.57 25.27,93.42 25.27,149.41 0,47.66 -5.68,89.91 -17.05,126.75 -11.36,36.84 -26.01,67.4 -43.79,91.52 -17.94,24.12 -37.38,43.13 -58.61,56.87 -21.07,13.89 -46.64,24.42 -76.54,31.57 -30.05,7.17 -64.43,10.68 -103.3,10.68l-231.72 0zm85.21 -73.69l136.95 0c42.31,0 75.5,-3.8 99.56,-11.54 24.08,-7.75 43.21,-18.57 57.56,-32.6 20.03,-19.74 35.72,-46.35 46.93,-79.68 11.22,-33.33 16.9,-73.69 16.9,-121.19 0,-65.79 -11.06,-116.38 -33.03,-151.76 -21.98,-35.38 -48.74,-59.06 -80.28,-71.04 -22.73,-8.63 -59.35,-12.86 -109.89,-12.86l-134.7 0 0 480.68z"/>
  <polygon id="_12" class="fil0" points="10189.13,3304.28 10189.13,2676.23 10652.87,2676.23 10652.87,2749.91 10274.34,2749.91 10274.34,2942.88 10628.65,2942.88 10628.65,3016.57 10274.34,3016.57 10274.34,3230.59 10668.12,3230.59 10668.12,3304.28 "/>
  <polygon id="_13" class="fil0" points="11181.95,3304.28 11181.95,2749.91 10970.26,2749.91 10970.26,2676.23 11478.85,2676.23 11478.85,2749.91 11267.16,2749.91 11267.16,3304.28 "/>
  <path id="_14" class="fil0" d="M11568.41 3304.28l0 -628.05 284.64 0c57.26,0 100.76,5.71 130.51,16.96 29.76,11.25 53.53,31.13 71.31,59.64 17.8,28.51 26.62,60.09 26.62,94.59 0,44.59 -14.8,82.15 -44.25,112.71 -29.46,30.56 -74.9,49.85 -136.49,58.19 22.57,10.52 39.62,21.05 51.28,31.28 24.81,22.23 48.29,50.15 70.26,83.62l111.08 171.05 -106.15 0 -84.91 -130.69c-24.67,-37.87 -45.15,-66.67 -61.15,-86.7 -16.14,-20.03 -30.49,-33.92 -43.2,-41.95 -12.56,-7.9 -25.56,-13.46 -38.72,-16.67 -9.57,-1.9 -25.26,-2.93 -47.24,-2.93l-98.37 0 0 278.94 -85.21 0zm85.21 -350.86l182.38 0c38.87,0 69.08,-3.95 90.9,-11.84 21.82,-7.75 38.43,-20.33 49.64,-37.72 11.36,-17.25 17.04,-35.96 17.04,-56.28 0,-29.68 -10.92,-54.25 -32.89,-73.39 -21.98,-19.15 -56.67,-28.66 -104.05,-28.66l-203.02 0 0 207.89z"/>
  <path id="_15" class="fil0" d="M12143.97 3304.28l246.37 -628.05 93.44 0 261.47 628.05 -96.73 0 -74.3 -190.34 -270.45 0 -69.67 190.34 -90.14 0zm184.78 -257.89l218.86 0 -66.97 -174.12c-20.18,-52.93 -35.43,-96.63 -46.05,-131.14 -8.82,40.93 -20.63,81.14 -35.43,120.9l-70.41 184.35z"/>
  <path id="_16" class="fil0" d="M12809.09 3304.28l0 -628.05 241 0c49.03,0 88.34,6.29 118.11,19.01 29.6,12.72 52.77,32.31 69.51,58.77 16.89,26.31 25.26,53.94 25.26,82.89 0,26.75 -7.46,52.05 -22.27,75.73 -14.79,23.69 -37.22,42.83 -67.27,57.45 38.87,11.12 68.77,30.12 89.54,57.02 20.94,26.75 31.41,58.48 31.41,95.03 0,29.53 -6.44,56.87 -19.14,82.16 -12.71,25.29 -28.41,44.73 -47.09,58.48 -18.69,13.59 -42.17,23.97 -70.27,30.99 -28.26,7.02 -62.78,10.53 -103.75,10.53l-245.03 0zm85.21 -364.02l138.89 0c37.67,0 64.72,-2.48 81.03,-7.3 21.67,-6.29 37.96,-16.82 48.87,-31.44 10.92,-14.62 16.46,-32.89 16.46,-54.97 0,-20.91 -5.08,-39.33 -15.4,-55.11 -10.16,-15.94 -24.81,-26.9 -43.8,-32.75 -18.99,-5.85 -51.58,-8.77 -97.61,-8.77l-128.43 0 0 190.34zm0 290.34l159.97 0c27.51,0 46.79,-1.02 58,-3.07 19.43,-3.36 35.88,-9.07 49.03,-17.1 13.17,-8.04 23.92,-19.74 32.45,-35.09 8.51,-15.35 12.7,-33.03 12.7,-53.06 0,-23.54 -6.12,-43.86 -18.53,-61.26 -12.25,-17.4 -29.3,-29.53 -51.12,-36.55 -21.67,-7.01 -53.07,-10.52 -93.88,-10.52l-148.61 0 0 216.65z"/>
  <path id="_17" class="fil0" d="M13340.57 3304.28l246.37 -628.05 93.43 0 261.48 628.05 -96.73 0 -74.3 -190.34 -270.45 0 -69.67 190.34 -90.14 0zm184.77 -257.89l218.87 0 -66.97 -174.12c-20.18,-52.93 -35.43,-96.63 -46.05,-131.14 -8.82,40.93 -20.64,81.14 -35.43,120.9l-70.42 184.35z"/>
  <path id="_18" class="fil0" d="M13966.23 3125.92l76.23 -10.23c2.1,48.1 11.21,80.99 27.51,98.82 16.29,17.69 39.02,26.61 67.87,26.61 21.23,0 39.62,-4.82 55.02,-14.32 15.39,-9.65 26.16,-22.66 31.99,-39.04 5.84,-16.37 8.66,-42.68 8.66,-78.65l0 -432.88 85.22 0 0 427.91c0,52.48 -6.43,93.13 -19.43,122.08 -13,28.79 -33.49,50.73 -61.74,65.93 -28.1,15.06 -61.14,22.66 -98.97,22.66 -56.36,0 -99.41,-15.79 -129.31,-47.51 -29.9,-31.72 -44.25,-78.8 -43.05,-141.37z"/>
  <path id="_19" class="fil0" d="M14431.76 2998.58c0,-104.09 28.7,-185.66 85.96,-244.58 57.27,-58.92 131.11,-88.3 221.7,-88.3 59.35,0 112.73,13.89 160.41,41.52 47.55,27.63 83.87,66.22 108.83,115.79 24.97,49.42 37.53,105.56 37.53,168.27 0,63.59 -13.16,120.61 -39.47,170.75 -26.31,50.29 -63.54,88.3 -111.67,114.03 -48.29,25.88 -100.32,38.74 -156.08,38.74 -60.54,0 -114.51,-14.33 -162.2,-42.84 -47.54,-28.5 -83.72,-67.39 -108.24,-116.8 -24.52,-49.27 -36.77,-101.46 -36.77,-156.58zm87.91 1.47c0,75.58 20.78,135.08 62.34,178.5 41.57,43.41 93.74,65.2 156.52,65.2 63.99,0 116.46,-21.92 157.87,-65.79 41.27,-43.86 61.89,-106.13 61.89,-186.83 0,-51.02 -8.82,-95.61 -26.46,-133.62 -17.65,-38.01 -43.51,-67.54 -77.44,-88.44 -34.08,-20.91 -72.21,-31.44 -114.51,-31.44 -60.1,0 -111.82,20.18 -155.17,60.53 -43.36,40.35 -65.03,107.6 -65.03,201.89z"/>
  <polygon id="_20" class="fil0" points="15401.11,3304.28 15401.11,2676.23 15486.32,2676.23 15486.32,3230.59 15802.05,3230.59 15802.05,3304.28 "/>
  <polygon id="_21" class="fil0" points="15917.91,3304.28 15917.91,2676.23 16003.13,2676.23 16003.13,3304.28 "/>
  <path id="_22" class="fil0" d="M16150.98 3304.28l0 -628.05 127.37 0 151.9 444.58c14.05,41.37 24.22,72.37 30.64,92.98 7.33,-22.81 18.84,-56.43 34.38,-100.73l154.58 -436.83 113.77 0 0 628.05 -81.63 0 0 -525.42 -187.47 525.42 -76.55 0 -185.37 -535.07 0 535.07 -81.63 0z"/>
  <polygon id="_23" class="fil0" points="16914.31,3304.28 16914.31,2676.23 16999.53,2676.23 16999.53,3304.28 "/>
  <polygon id="_24" class="fil0" points="17312.43,3304.28 17312.43,2749.91 17100.74,2749.91 17100.74,2676.23 17609.33,2676.23 17609.33,2749.91 17397.64,2749.91 17397.64,3304.28 "/>
  <path id="_25" class="fil0" d="M17560.15 3304.28l246.37 -628.05 93.43 0 261.48 628.05 -96.74 0 -74.29 -190.34 -270.45 0 -69.66 190.34 -90.14 0zm184.77 -257.89l218.87 0 -66.97 -174.12c-20.19,-52.93 -35.43,-96.63 -46.05,-131.14 -8.82,40.93 -20.63,81.14 -35.43,120.9l-70.42 184.35z"/>
  <path id="_26" class="fil0" d="M18228.85 3304.28l0 -628.05 221.26 0c49.92,0 88.06,2.93 114.37,8.92 36.77,8.33 68.17,23.39 94.18,45.03 33.94,28.07 59.21,63.74 75.95,107.3 16.89,43.57 25.27,93.42 25.27,149.41 0,47.66 -5.68,89.91 -17.05,126.75 -11.36,36.84 -26.01,67.4 -43.79,91.52 -17.94,24.12 -37.38,43.13 -58.61,56.87 -21.07,13.89 -46.64,24.42 -76.54,31.57 -30.05,7.17 -64.43,10.68 -103.3,10.68l-231.72 0zm85.21 -73.69l136.95 0c42.31,0 75.5,-3.8 99.56,-11.54 24.08,-7.75 43.21,-18.57 57.56,-32.6 20.03,-19.74 35.73,-46.35 46.93,-79.68 11.22,-33.33 16.9,-73.69 16.9,-121.19 0,-65.79 -11.06,-116.38 -33.03,-151.76 -21.98,-35.38 -48.74,-59.06 -80.28,-71.04 -22.73,-8.63 -59.35,-12.86 -109.89,-12.86l-134.7 0 0 480.68z"/>
  <path id="_27" class="fil0" d="M18806.22 3304.28l246.37 -628.05 93.43 0 261.48 628.05 -96.73 0 -74.3 -190.34 -270.45 0 -69.67 190.34 -90.14 0zm184.77 -257.89l218.87 0 -66.97 -174.12c-20.18,-52.93 -35.43,-96.63 -46.05,-131.14 -8.82,40.93 -20.64,81.14 -35.43,120.9l-70.42 184.35z"/>
  <g id="_2015077753216">
   <rect class="fil1" x="2895.64" y="3754.44" width="2368.74" height="646.02"/>
   <rect class="fil2" x="5263.7" y="3754.44" width="2368.74" height="646.02"/>
   <rect class="fil3" x="7629.08" y="3754.44" width="2368.74" height="646.02"/>
   <rect class="fil4" x="9996.12" y="3754.44" width="2368.74" height="646.02"/>
   <rect class="fil5" x="14729.05" y="3754.44" width="2368.74" height="646.02"/>
   <rect class="fil6" x="17090.22" y="3754.44" width="2368.74" height="646.02"/>
   <rect class="fil7" x="12361.52" y="3754.44" width="2368.74" height="646.02"/>
  </g>
  <g id="_2015077759456">
   <path class="fil3" d="M3025.42 4420.49c-40.5,-6.83 -109.88,-22.28 -201.5,-53.96 -382.16,-132.22 -1152,-548.11 -1833.73,-1811.77 -157.48,-262.49 -423.1,-882.56 -464.24,-1196.43 4.77,29.02 28.08,-48.24 34.09,-21.73 99.33,438.17 497.1,1288.93 747.84,1645.72 65.98,93.92 142.31,196.15 231.61,308.89 346.57,437.54 901.87,1030.82 1477.98,1079.66l7.95 49.63z"/>
   <path class="fil3" d="M712.86 3378.37c102.9,115.98 291.09,313.93 458.34,379.88 320.1,126.2 350.32,-109.57 276.84,-306.14 -65.35,-174.86 -588.84,-93.76 -735.18,-73.74z"/>
   <path class="fil3" d="M340.7 2662.68c50.78,74.76 204.85,537.7 654.46,442.48 127.72,-474.43 -256.47,-449.75 -654.46,-442.48z"/>
   <path class="fil3" d="M1088.94 944.52c-98.82,65.7 -532.91,376.09 -316.82,584.98 318.01,307.39 326.58,-418.5 316.82,-584.98z"/>
   <path class="fil3" d="M2199.79 2357.1c212.85,-204.29 -225.86,-397.52 -368.04,-471.04 3.13,196.13 164.48,666.38 368.04,471.04z"/>
   <path class="fil3" d="M2117.73 159.88l23.96 -1.16c-35.3,120.5 -125.15,397.2 -20.65,512.57 111.1,122.63 304.33,-16.2 165.6,-273.3l-168.92 -238.1z"/>
   <path class="fil3" d="M22.32 2000.39c50.78,74.76 204.86,537.7 654.46,442.49 127.72,-474.44 -256.47,-449.75 -654.46,-442.49z"/>
   <path class="fil3" d="M1316.92 1540.82c-64.11,63.11 -489.51,296.04 -316.95,721.86 486.45,42.4 394.41,-331.41 316.95,-721.86z"/>
   <path class="fil3" d="M1699.72 2141.48c-87.99,76.43 -442.95,345.58 -407.26,540.99 37.49,205.22 191.77,236.77 345.98,124.37 118.15,-86.15 84.28,-417.46 61.28,-665.36z"/>
   <path class="fil3" d="M2039.56 2714.83c-87.99,76.43 -442.95,345.58 -407.26,540.99 37.49,205.22 191.77,236.77 345.98,124.37 118.15,-86.15 84.28,-417.46 61.28,-665.36z"/>
   <path class="fil3" d="M361.83 552.26c-63.39,191.13 -187.28,741.22 161.74,659.3 288.54,-67.74 -75.47,-561.21 -161.74,-659.3z"/>
   <path class="fil3" d="M-0 1225.74c110.34,43.68 599.53,256.9 431.67,506.2 -247.04,366.86 -406.56,-341.33 -431.67,-506.2z"/>
   <path class="fil3" d="M2893.35 3596.61c-24.55,-4.15 -28.55,18.46 -44.44,-0.54 -529.58,-632.56 -615.81,-1505.34 -583.23,-2446.26 9.84,-284.76 213.97,-592.18 201.87,-684.61 33.1,17.36 0.36,1.3 36.31,18.4 1.96,107.21 -152.56,411.99 -193.23,673.94 -84.01,541.09 14.04,1738.48 574.77,2389.44l7.96 49.63z"/>
   <path class="fil3" d="M2692.32 1877.66c-60.1,39.74 -299.39,176.06 -293.28,298.7 6.42,128.8 98.44,160.6 202.01,104.14 79.37,-43.27 85.35,-249.06 91.27,-402.85z"/>
   <path class="fil3" d="M2850.92 646.01c-71.49,8.95 -346.41,24.94 -395.36,137.56 -51.4,118.28 16.95,187.59 134.83,182.96 90.32,-3.56 186.99,-185.33 260.53,-320.53z"/>
   <path class="fil3" d="M2691.12 1046.14c-67.69,24.69 -332.11,101.64 -354.69,222.35 -23.71,126.76 58.39,179.08 172.27,148.25 87.25,-23.62 140.91,-222.39 182.42,-370.6z"/>
   <path class="fil3" d="M2649.01 1463.64c-63.84,33.39 -315.79,144.57 -322.24,267.19 -6.76,128.79 81.53,169.81 190.33,124.23 83.36,-34.94 110.33,-239.04 131.91,-391.42z"/>
   <path class="fil3" d="M2141.93 1269.79c194.46,-186.64 -206.34,-363.18 -336.24,-430.34 2.86,179.18 150.28,608.8 336.24,430.34z"/>
   <path class="fil3" d="M2141.93 1827.24c194.46,-186.64 -206.34,-363.17 -336.24,-430.34 2.86,179.18 150.28,608.8 336.24,430.34z"/>
   <path class="fil3" d="M2761.13 0c-125.84,69.04 -457.44,296.14 -235.45,422.72 183.53,104.63 232.91,-329.64 235.45,-422.72z"/>
  </g>
 </g>
</svg>
